HIERARCHY
ROOT Hips
{
 OFFSET 0.000000 0.000000 0.000000
 CHANNELS 6 Xposition Yposition Zposition Yrotation Xrotation Zrotation
 JOINT Chest
 {
  OFFSET 0.000000 9.588913 -0.003946
  CHANNELS 3 Yrotation Xrotation Zrotation
  JOINT Chest2
  {
   OFFSET 0.000000 9.541882 0.008053
   CHANNELS 3 Yrotation Xrotation Zrotation
   JOINT Chest3
   {
    OFFSET 0.000000 9.501360 0.000000
    CHANNELS 3 Yrotation Xrotation Zrotation
    JOINT Chest4
    {
     OFFSET 0.000000 9.491660 0.000000
     CHANNELS 3 Yrotation Xrotation Zrotation
     JOINT Neck
     {
      OFFSET 0.000000 14.331917 0.000000
      CHANNELS 3 Yrotation Xrotation Zrotation
      JOINT Head
      {
       OFFSET 0.000000 8.884799 0.017034
       CHANNELS 3 Yrotation Xrotation Zrotation
       End Site
       {
        OFFSET 0.000000 16.896195 0.008993
       }
      }
     }
     JOINT RightCollar
     {
      OFFSET -2.923010 9.499495 0.000000
      CHANNELS 3 Yrotation Xrotation Zrotation
      JOINT RightShoulder
      {
       OFFSET -13.795216 0.000000 0.000000
       CHANNELS 3 Yrotation Xrotation Zrotation
       JOINT RightElbow
       {
        OFFSET -30.272209 0.000000 0.000000
        CHANNELS 3 Yrotation Xrotation Zrotation
        JOINT RightWrist
        {
         OFFSET -24.478199 0.000000 0.000000
         CHANNELS 3 Yrotation Xrotation Zrotation
         End Site
         {
          OFFSET -18.090752 0.000000 0.000000
         }
        }
       }
      }
     }
     JOINT LeftCollar
     {
      OFFSET 2.923010 9.499495 0.000000
      CHANNELS 3 Yrotation Xrotation Zrotation
      JOINT LeftShoulder
      {
       OFFSET 13.795216 0.000000 0.000000
       CHANNELS 3 Yrotation Xrotation Zrotation
       JOINT LeftElbow
       {
        OFFSET 30.272209 0.000000 0.000000
        CHANNELS 3 Yrotation Xrotation Zrotation
        JOINT LeftWrist
        {
         OFFSET 24.478199 0.000000 0.000000
         CHANNELS 3 Yrotation Xrotation Zrotation
         End Site
         {
          OFFSET 18.090752 0.000000 0.000000
         }
        }
       }
      }
     }
    }
   }
  }
 }
 JOINT RightHip
 {
  OFFSET -7.826875 0.019532 0.001973
  CHANNELS 3 Yrotation Xrotation Zrotation
  JOINT RightKnee
  {
   OFFSET 0.000000 -40.546152 -0.001885
   CHANNELS 3 Yrotation Xrotation Zrotation
   JOINT RightAnkle
   {
    OFFSET 0.000000 -39.417092 -0.003189
    CHANNELS 3 Yrotation Xrotation Zrotation
    JOINT RightToe
    {
     OFFSET 0.000000 -7.579396 17.243563
     CHANNELS 3 Yrotation Xrotation Zrotation
     End Site
     {
      OFFSET 0.000000 -1.500329 6.694466
     }
    }
   }
  }
 }
 JOINT LeftHip
 {
  OFFSET 7.826875 0.019532 0.001973
  CHANNELS 3 Yrotation Xrotation Zrotation
  JOINT LeftKnee
  {
   OFFSET 0.000000 -40.546152 -0.001885
   CHANNELS 3 Yrotation Xrotation Zrotation
   JOINT LeftAnkle
   {
    OFFSET 0.000000 -39.417092 -0.003189
    CHANNELS 3 Yrotation Xrotation Zrotation
    JOINT LeftToe
    {
     OFFSET 0.000000 -7.579396 17.243563
     CHANNELS 3 Yrotation Xrotation Zrotation
     End Site
     {
      OFFSET 0.000000 -1.500329 6.694466
     }
    }
   }
  }
 }
}
MOTION
Frames: 16
Frame Time: 0.008333
4.913269 90.965055 4.676939 -35.481147 -9.655200 -14.492871 3.038598 2.731690 -2.125721 1.746965 1.549512 -1.202883 2.178794 1.942539 -1.496311 1.746968 1.549514 -1.202880 3.563900 28.964539 7.457249 2.291980 6.743678 7.520834 -4.902782 -2.414458 -11.360741 -4.579218 -21.512079 38.234570 88.180669 2.307459 22.513096 7.459989 -4.047799 -5.930055 -10.599928 -6.670571 10.041785 14.257290 -34.017118 -56.283106 -46.693206 -1.734121 -11.297263 -8.376873 1.851243 10.493450 -14.151567 -12.703059 -9.208723 3.332446 57.067683 7.264334 5.667317 -11.679360 16.369977 -0.245660 0.131941 -0.880166 13.032596 7.157334 14.721713 -5.915380 9.144124 0.139023 -8.910349 -17.615728 -11.858408 0.009649 -0.239352 -0.103639
4.963531 90.948402 4.742059 -35.471574 -9.633046 -14.311260 2.998615 2.694634 -2.078489 1.723547 1.529509 -1.173157 2.149705 1.917323 -1.459341 1.723550 1.529511 -1.173153 3.520062 28.985623 7.328051 2.271178 6.760598 7.384112 -4.902010 -2.403865 -11.254012 -4.658717 -21.227288 38.520308 88.200751 2.241888 22.844637 7.416322 -4.006557 -5.887367 -10.551585 -6.664800 10.112711 14.347485 -34.216576 -56.139866 -46.976101 -1.726515 -11.448853 -8.263873 1.893745 10.377638 -14.139171 -12.691597 -9.084531 3.286591 56.941207 7.185923 5.605372 -11.665773 16.278745 -0.258711 0.088355 -0.779264 12.855032 7.315445 14.468086 -5.909847 8.989504 0.086342 -8.827781 -17.477376 -11.723348 0.009213 -0.244301 -0.107490
5.015372 90.931600 4.797964 -35.456622 -9.598836 -14.141082 2.953724 2.657943 -2.024952 1.698924 1.507833 -1.142966 2.119113 1.890013 -1.421801 1.698926 1.507835 -1.142962 3.473660 28.992787 7.210237 2.244828 6.760304 7.260599 -4.910185 -2.381134 -11.145841 -4.727607 -20.964520 38.812609 88.195451 2.206548 23.140823 7.387399 -3.959719 -5.861823 -10.512378 -6.662767 10.184105 14.397683 -34.372768 -55.958221 -47.267694 -1.746468 -11.570549 -8.158394 1.939320 10.257465 -14.083757 -12.678608 -8.947608 3.257728 56.803285 7.134181 5.524257 -11.650997 16.187553 -0.253280 0.052705 -0.691574 12.630695 7.446599 14.217701 -5.928052 8.864793 0.025471 -8.700162 -17.347281 -11.563180 0.007600 -0.247744 -0.130006
5.071468 90.913373 4.845926 -35.440033 -9.550424 -13.971198 2.907401 2.619341 -1.975733 1.674881 1.483798 -1.110943 2.089258 1.859752 -1.381977 1.674884 1.483800 -1.110940 3.421373 28.988507 7.101840 2.209699 6.745824 7.148862 -4.938497 -2.343449 -11.042107 -4.786304 -20.723099 39.111048 88.178404 2.179154 23.404795 7.346992 -3.914031 -5.833521 -10.485013 -6.663091 10.250747 14.395414 -34.486185 -55.739312 -47.556793 -1.806442 -11.652334 -8.061794 1.985550 10.138911 -13.987721 -12.669728 -8.815712 3.229562 56.658386 7.103894 5.460732 -11.639494 16.115846 -0.247351 0.021191 -0.638756 12.357970 7.551532 13.951363 -5.982015 8.768867 -0.031548 -8.518221 -17.227609 -11.384248 0.005107 -0.247666 -0.166076
5.131758 90.893412 4.888121 -35.415971 -9.494161 -13.803034 2.859020 2.580703 -1.930579 1.650966 1.459269 -1.075403 2.059573 1.828862 -1.337754 1.650969 1.459271 -1.075400 3.360665 28.973984 6.997417 2.164163 6.718274 7.043312 -4.983724 -2.291902 -10.945872 -4.843302 -20.505443 39.410502 88.151505 2.144364 23.648411 7.277913 -3.871955 -5.781412 -10.467469 -6.663426 10.305586 14.347699 -34.567723 -55.493251 -47.836927 -1.898557 -11.697072 -7.979326 2.025345 10.035655 -13.869975 -12.659120 -8.696892 3.188895 56.511937 7.084113 5.431018 -11.638358 16.073322 -0.244254 -0.004573 -0.624168 12.040812 7.639020 13.667744 -6.062603 8.696303 -0.066683 -8.294930 -17.122341 -11.215183 0.003781 -0.241325 -0.198984
5.195158 90.871939 4.927041 -35.380275 -9.438598 -13.640682 2.806846 2.545897 -1.886412 1.625213 1.436991 -1.036243 2.027595 1.800770 -1.289000 1.625216 1.436994 -1.036240 3.294476 28.948759 6.892119 2.112557 6.676703 6.937776 -5.028072 -2.236777 -10.851210 -4.914410 -20.312269 39.699409 88.097378 2.084187 23.884853 7.180593 -3.828483 -5.688032 -10.447648 -6.662361 10.347041 14.272519 -34.638910 -55.234724 -48.102961 -2.003847 -11.724910 -7.912560 2.050576 9.960878 -13.751176 -12.638266 -8.591047 3.132301 56.364761 7.067061 5.438253 -11.648373 16.059616 -0.246202 -0.025027 -0.641209 11.718894 7.705764 13.383806 -6.112862 8.653874 -0.079420 -8.110611 -17.038383 -11.073605 0.002444 -0.227946 -0.212298
5.259923 90.849625 4.964468 -35.331307 -9.389454 -13.491494 2.753268 2.516810 -1.835450 1.596530 1.418888 -0.993701 1.991953 1.777879 -1.236010 1.596534 1.418891 -0.993698 3.224980 28.913830 6.783508 2.057875 6.622269 6.829041 -5.063329 -2.186431 -10.757907 -5.012345 -20.138242 39.978793 88.014465 1.994950 24.117477 7.060919 -3.787326 -5.547489 -10.420440 -6.659004 10.375458 14.188360 -34.718253 -54.977873 -48.350556 -2.105905 -11.752230 -7.857940 2.061031 9.914331 -13.644624 -12.600384 -8.484963 3.065454 56.213257 7.048806 5.465088 -11.664808 16.065244 -0.248878 -0.040638 -0.674047 11.468685 7.741339 13.131985 -6.098474 8.640838 -0.091312 -8.049746 -16.977652 -10.944215 -0.000722 -0.206129 -0.208623
5.324409 90.827332 5.001974 -35.268068 -9.350542 -13.360469 2.701368 2.493684 -1.770259 1.564976 1.405906 -0.948276 1.952716 1.761375 -1.179403 1.564979 1.405908 -0.948273 3.150656 28.872764 6.671190 1.998593 6.559640 6.717134 -5.093010 -2.143758 -10.673701 -5.134424 -19.968625 40.263547 87.912483 1.880367 24.336097 6.924078 -3.756667 -5.369330 -10.390077 -6.649671 10.391305 14.110956 -34.814022 -54.733056 -48.582027 -2.191952 -11.783156 -7.810958 2.064444 9.888668 -13.558541 -12.540099 -8.367757 2.997167 56.051738 7.030475 5.493777 -11.682368 16.077901 -0.246973 -0.050653 -0.708061 11.344833 7.748527 12.933671 -6.050455 8.639479 -0.122109 -8.117270 -16.933149 -10.811628 -0.004466 -0.175805 -0.195590
5.388533 90.805601 5.041201 -35.190972 -9.321619 -13.242267 2.651266 2.476122 -1.691481 1.531227 1.397771 -0.902707 1.910722 1.750933 -1.122602 1.531230 1.397774 -0.902704 3.071412 28.830094 6.558629 1.933956 6.495040 6.606151 -5.122407 -2.113990 -10.601673 -5.268625 -19.785017 40.571068 87.790460 1.744774 24.530732 6.777506 -3.734499 -5.180716 -10.362914 -6.634667 10.401247 14.048557 -34.923366 -54.507030 -48.802736 -2.252212 -11.817890 -7.766304 2.066801 9.877030 -13.492503 -12.458056 -8.241111 2.930105 55.876337 7.011133 5.513257 -11.701324 16.090721 -0.240745 -0.051567 -0.734583 11.335872 7.740555 12.779396 -6.021638 8.634443 -0.173428 -8.254500 -16.895609 -10.679024 -0.006596 -0.141780 -0.175503
5.452863 90.784820 5.082864 -35.100874 -9.298061 -13.130466 2.601597 2.462992 -1.603794 1.496092 1.393638 -0.859036 1.866977 1.745505 -1.068162 1.496095 1.393640 -0.859034 2.988412 28.788806 6.449860 1.864442 6.432687 6.500492 -5.151930 -2.101357 -10.543207 -5.411635 -19.577019 40.911111 87.643881 1.591063 24.699461 6.638270 -3.719089 -5.022215 -10.344621 -6.622899 10.409224 14.004307 -35.037916 -54.298580 -49.019558 -2.288157 -11.863222 -7.716881 2.075364 9.872542 -13.442103 -12.359839 -8.107300 2.852935 55.686520 6.979469 5.519663 -11.724907 16.100731 -0.232862 -0.040249 -0.748892 11.383759 7.727666 12.646441 -6.038761 8.625153 -0.237381 -8.393860 -16.860801 -10.555676 -0.006333 -0.110585 -0.149031
5.515818 90.765893 5.125014 -35.001823 -9.273908 -13.038400 2.551745 2.451805 -1.496794 1.460681 1.391608 -0.817797 1.822872 1.742722 -1.016754 1.460684 1.391610 -0.817794 2.903227 28.751088 6.348127 1.791130 6.375670 6.403518 -5.178119 -2.106292 -10.490695 -5.563134 -19.342626 41.274403 87.465250 1.418839 24.846671 6.542401 -3.710763 -4.933867 -10.335730 -6.618066 10.414884 13.975077 -35.152765 -54.101360 -49.237195 -2.307381 -11.919302 -7.656409 2.093565 9.864154 -13.409795 -12.248738 -7.949673 2.757750 55.481628 6.926896 5.493886 -11.769159 16.101057 -0.209279 0.003241 -0.742237 11.430791 7.710256 12.536322 -6.100521 8.619730 -0.312029 -8.488396 -16.828826 -10.442496 -0.005392 -0.086865 -0.120604
5.582519 90.747595 5.170705 -34.903962 -9.246900 -12.928024 2.501894 2.442361 -1.410055 1.427242 1.389019 -0.779469 1.781222 1.739265 -0.968979 1.427244 1.389021 -0.779467 2.817583 28.720886 6.256597 1.715303 6.329358 6.318507 -5.201067 -2.123079 -10.427129 -5.719892 -19.091527 41.643540 87.251218 1.246299 24.984482 6.526131 -3.714801 -4.942914 -10.330844 -6.616543 10.423914 13.949948 -35.262938 -53.919373 -49.451808 -2.316096 -11.969335 -7.583290 2.116143 9.836774 -13.385085 -12.139245 -7.799932 2.644555 55.262500 6.850006 5.475940 -11.812739 16.090188 -0.197933 0.045743 -0.727507 11.437886 7.699548 12.400882 -6.195348 8.617852 -0.397465 -8.526885 -16.792434 -10.323413 -0.003616 -0.073996 -0.098947
5.651671 90.730299 5.217749 -34.815986 -9.214479 -12.813278 2.455726 2.429991 -1.328417 1.397083 1.384419 -0.743367 1.743666 1.733316 -0.923981 1.397085 1.384421 -0.743364 2.731306 28.701710 6.173733 1.637141 6.298198 6.243838 -5.224444 -2.136808 -10.348598 -5.877057 -18.838261 42.014835 87.015522 1.111148 25.111825 6.591871 -3.735778 -5.044361 -10.323861 -6.616005 10.438975 13.923168 -35.365283 -53.762889 -49.658271 -2.320926 -12.006119 -7.501278 2.140208 9.786276 -13.370429 -12.037181 -7.645426 2.521981 55.036265 6.751387 5.453472 -11.870039 16.068650 -0.183687 0.100223 -0.703407 11.392668 7.695389 12.250966 -6.307067 8.613105 -0.485635 -8.517416 -16.745552 -10.194136 -0.002676 -0.072386 -0.090033
5.724333 90.713471 5.266179 -34.740199 -9.175721 -12.690010 2.414205 2.415044 -1.255029 1.371276 1.377553 -0.708360 1.711550 1.724553 -0.880344 1.371278 1.377555 -0.708358 2.643144 28.693710 6.095862 1.556039 6.282108 6.175623 -5.254263 -2.135014 -10.263149 -6.024087 -18.585526 42.390824 86.778457 1.041470 25.205204 6.709339 -3.760043 -5.199395 -10.317556 -6.613120 10.456070 13.898573 -35.464283 -53.631919 -49.852949 -2.326823 -12.042764 -7.419434 2.163711 9.724093 -13.367581 -11.948372 -7.497556 2.402242 54.808297 6.640845 5.439388 -11.942292 16.045626 -0.173169 0.160614 -0.680310 11.294572 7.698578 12.075366 -6.404637 8.604485 -0.561820 -8.481537 -16.689518 -10.058081 -0.001836 -0.078068 -0.092060
5.800956 90.696596 5.315707 -34.683978 -9.131777 -12.556864 2.380499 2.398611 -1.189496 1.351836 1.369137 -0.673547 1.687395 1.713869 -0.836929 1.351839 1.369139 -0.673545 2.552160 28.694285 6.019164 1.471735 6.277412 6.109677 -5.296576 -2.117012 -10.176653 -6.151530 -18.331458 42.766450 86.555707 1.043707 25.247901 6.837752 -3.755852 -5.354413 -10.314756 -6.607862 10.470604 13.873365 -35.562239 -53.517216 -50.031231 -2.338989 -12.086569 -7.344418 2.182240 9.664016 -13.369853 -11.876997 -7.363398 2.281849 54.585314 6.521905 5.445537 -12.027972 16.028536 -0.168475 0.221340 -0.667151 11.168263 7.706799 11.871395 -6.463046 8.592041 -0.617532 -8.439385 -16.628922 -9.919569 -0.000803 -0.085980 -0.100749
5.880816 90.679436 5.365962 -34.651404 -9.086862 -12.417368 2.356136 2.382741 -1.128143 1.339106 1.360546 -0.637785 1.671628 1.702978 -0.792303 1.339108 1.360548 -0.637784 2.458444 28.700527 5.939118 1.385270 6.280004 6.040795 -5.354386 -2.087274 -10.092194 -6.255584 -18.079840 43.134269 86.352968 1.106920 25.242266 6.940733 -3.709221 -5.463298 -10.311039 -6.601429 10.480165 13.843020 -35.657093 -53.411987 -50.196660 -2.362900 -12.134961 -7.273000 2.192795 9.615755 -13.373294 -11.823152 -7.242597 2.155008 54.374416 6.396429 5.476223 -12.119035 16.018969 -0.168145 0.274575 -0.666521 11.047524 7.716932 11.651297 -6.488513 8.575871 -0.654708 -8.407528 -16.568845 -9.787839 -0.001259 -0.092486 -0.107395
